<svg width="12" height="11" viewBox="0 0 12 11" fill="none" xmlns="http://www.w3.org/2000/svg">
<g id="Frame" clip-path="url(#clip0_341_1277)">
<g id="Group">
<g id="Group_2">
<g id="Group_3">
<g id="Union">
<path d="M4.09033 2.74412C4.09033 1.69111 4.947 0.834442 5.99999 0.834442C7.05298 0.834442 7.90965 1.69113 7.90965 2.74412C7.90965 3.45835 7.51546 4.08217 6.93325 4.40968C6.65711 4.56501 6.33876 4.65378 5.99999 4.65378C5.66123 4.65378 5.34287 4.56501 5.06673 4.40968C4.48455 4.08217 4.09033 3.45837 4.09033 2.74412Z" fill="url(#paint0_linear_341_1277)"/>
<path d="M6.97242 5.04486H5.02761C4.15203 5.04486 3.4397 5.7572 3.4397 6.63277V9.84791C3.4397 10.0233 3.58188 10.1655 3.75728 10.1655H8.24274C8.41814 10.1655 8.56033 10.0233 8.56033 9.84791V6.63277C8.56033 5.7572 7.84799 5.04486 6.97242 5.04486Z" fill="url(#paint1_linear_341_1277)"/>
<path d="M9.0614 5.8721H9.9121C10.7877 5.8721 11.5 6.58444 11.5 7.45999V9.21271C11.5 9.73804 11.0726 10.1655 10.5472 10.1655H9.14085C9.17611 10.0661 9.19549 9.9592 9.19549 9.84787V6.63273C9.19549 6.3657 9.14811 6.1095 9.0614 5.8721Z" fill="url(#paint2_linear_341_1277)"/>
<path d="M2.93861 5.87213C2.85189 6.10953 2.80452 6.36571 2.80452 6.63276V9.8479C2.80452 9.95923 2.8239 10.0661 2.85916 10.1655H1.45275C0.927389 10.1655 0.5 9.73809 0.5 9.21276V7.46004C0.5 6.58447 1.21234 5.87213 2.08791 5.87213H2.93861Z" fill="url(#paint3_linear_341_1277)"/>
<path d="M2.64668 2.61441C1.85917 2.61441 1.21851 3.25507 1.21851 4.04258C1.21851 4.83009 1.85917 5.47076 2.64668 5.47076C2.84644 5.47076 3.03666 5.42938 3.20946 5.355C3.50822 5.22637 3.75456 4.99868 3.907 4.71348C4.01399 4.51331 4.07485 4.28495 4.07485 4.04258C4.07485 3.2551 3.43419 2.61441 2.64668 2.61441Z" fill="url(#paint4_linear_341_1277)"/>
<path d="M7.92517 4.04258C7.92517 3.25507 8.56583 2.61441 9.35334 2.61441C10.1409 2.61441 10.7815 3.25507 10.7815 4.04258C10.7815 4.83009 10.1409 5.47076 9.35334 5.47076C9.15358 5.47076 8.96336 5.42938 8.79056 5.355C8.4918 5.22639 8.24546 4.9987 8.09303 4.71348C7.98604 4.51333 7.92517 4.28497 7.92517 4.04258Z" fill="url(#paint5_linear_341_1277)"/>
</g>
</g>
</g>
</g>
</g>
<defs>
<linearGradient id="paint0_linear_341_1277" x1="6.01466" y1="0.834442" x2="6.01466" y2="10.1655" gradientUnits="userSpaceOnUse">
<stop stop-color="#0066FF"/>
<stop offset="1" stop-color="#AA93FF"/>
</linearGradient>
<linearGradient id="paint1_linear_341_1277" x1="6.01466" y1="0.834442" x2="6.01466" y2="10.1655" gradientUnits="userSpaceOnUse">
<stop stop-color="#0066FF"/>
<stop offset="1" stop-color="#AA93FF"/>
</linearGradient>
<linearGradient id="paint2_linear_341_1277" x1="6.01466" y1="0.834442" x2="6.01466" y2="10.1655" gradientUnits="userSpaceOnUse">
<stop stop-color="#0066FF"/>
<stop offset="1" stop-color="#AA93FF"/>
</linearGradient>
<linearGradient id="paint3_linear_341_1277" x1="6.01466" y1="0.834442" x2="6.01466" y2="10.1655" gradientUnits="userSpaceOnUse">
<stop stop-color="#0066FF"/>
<stop offset="1" stop-color="#AA93FF"/>
</linearGradient>
<linearGradient id="paint4_linear_341_1277" x1="6.01466" y1="0.834442" x2="6.01466" y2="10.1655" gradientUnits="userSpaceOnUse">
<stop stop-color="#0066FF"/>
<stop offset="1" stop-color="#AA93FF"/>
</linearGradient>
<linearGradient id="paint5_linear_341_1277" x1="6.01466" y1="0.834442" x2="6.01466" y2="10.1655" gradientUnits="userSpaceOnUse">
<stop stop-color="#0066FF"/>
<stop offset="1" stop-color="#AA93FF"/>
</linearGradient>
<clipPath id="clip0_341_1277">
<rect width="11" height="11" fill="white" transform="translate(0.5)"/>
</clipPath>
</defs>
</svg>
