<svg width="194" height="193"  fill="none" xmlns="http://www.w3.org/2000/svg">
<g filter="url(#filter0_d_341_62)">
<rect x="65.5" y="25" width="63" height="63" rx="16" fill="#212330"/>
<path d="M95.1771 57.9583C95.7808 57.9583 96.2708 58.4483 96.2708 59.0521C96.2708 59.6558 95.7808 60.1458 95.1771 60.1458C94.5733 60.1458 94.0833 59.6558 94.0833 59.0521C94.0833 58.4483 94.5733 57.9583 95.1771 57.9583Z" fill="url(#paint0_linear_341_62)"/>
<path fill-rule="evenodd" clip-rule="evenodd" d="M95.1771 60.875C94.172 60.875 93.3542 60.0572 93.3542 59.0521C93.3542 58.0469 94.172 57.2292 95.1771 57.2292C96.1823 57.2292 97 58.0469 97 59.0521C97 60.0572 96.1823 60.875 95.1771 60.875ZM95.1771 58.6875C94.9761 58.6875 94.8125 58.8511 94.8125 59.0521C94.8125 59.2531 94.9761 59.4167 95.1771 59.4167C95.3781 59.4167 95.5417 59.2531 95.5417 59.0521C95.5417 58.8511 95.3781 58.6875 95.1771 58.6875Z" fill="url(#paint1_linear_341_62)"/>
<path fill-rule="evenodd" clip-rule="evenodd" d="M88.7218 56.5C88.7218 61.0646 92.4354 64.7782 97 64.7782C97.6538 64.7782 98.3057 64.7014 98.9376 64.5496C98.9483 64.5472 98.959 64.5446 98.9697 64.5418C101.581 63.9049 103.723 62.0315 104.708 59.5256C104.713 59.5123 104.718 59.499 104.723 59.4856C105.091 58.533 105.278 57.5287 105.278 56.5C105.278 56.1827 105.26 55.8636 105.224 55.5513C105.223 55.539 105.221 55.5267 105.219 55.5143C104.963 53.3519 103.884 51.4096 102.178 50.0414C102.169 50.0343 102.161 50.0273 102.152 50.0206C100.892 49.0174 99.381 48.4082 97.783 48.2587C92.9671 47.7953 88.729 51.5955 88.7218 56.4919L88.7218 56.5ZM90.2173 57.2113C90.5757 60.6405 93.4809 63.3199 97 63.3199C97.2778 63.3199 97.5551 63.3031 97.8298 63.2697C97.7629 62.9642 97.7292 62.6513 97.7292 62.3333C97.7292 59.9209 99.6918 57.9583 102.104 57.9583C102.618 57.9583 103.124 58.0483 103.601 58.222C103.746 57.6629 103.82 57.0863 103.82 56.4999C103.82 56.4969 103.82 56.4939 103.82 56.4909C103.734 56.497 103.649 56.5 103.563 56.5C101.552 56.5 99.9167 54.8645 99.9167 52.8542C99.9167 52.0745 100.163 51.3291 100.611 50.7133C99.9181 50.2799 99.156 49.9762 98.3563 49.815C97.7432 53.8016 94.4208 56.9584 90.2173 57.2113ZM96.9011 49.6793C93.4856 49.7232 90.5948 52.339 90.221 55.7493C93.6669 55.4988 96.3623 52.9223 96.9011 49.6793ZM101.759 51.6148C101.511 51.9754 101.375 52.4053 101.375 52.8542C101.375 54.0603 102.356 55.0417 103.563 55.0417C103.596 55.0417 103.63 55.0409 103.663 55.0393C103.38 53.733 102.722 52.5497 101.759 51.6148ZM103.084 59.5859C102.771 59.4744 102.44 59.4167 102.104 59.4167C100.496 59.4167 99.1875 60.7251 99.1875 62.3333C99.1875 62.5392 99.2087 62.7418 99.2508 62.9398C100.911 62.3607 102.287 61.157 103.084 59.5859Z" fill="url(#paint2_linear_341_62)"/>
<path d="M97 68.8958C90.1482 68.8958 84.6042 63.3507 84.6042 56.5C84.6042 49.648 90.1494 44.1042 97 44.1042C100.31 44.1042 103.423 45.3935 105.765 47.7346C108.107 50.0766 109.396 53.1895 109.396 56.5C109.396 63.3519 103.851 68.8958 97 68.8958ZM89.2658 48.7659C87.2002 50.8322 86.0625 53.5789 86.0625 56.5C86.0625 62.5457 90.9552 67.4375 97 67.4375C99.9212 67.4375 102.668 66.2998 104.734 64.2341C106.8 62.1677 107.938 59.4211 107.938 56.5C107.938 53.5789 106.8 50.8322 104.734 48.7657C100.459 44.4919 93.542 44.4911 89.2658 48.7659Z" fill="url(#paint3_linear_341_62)"/>
<path d="M97 45.5625C96.5972 45.5625 96.2708 45.2361 96.2708 44.8333V39.7292C96.2708 39.3264 96.5972 39 97 39C97.4027 39 97.7291 39.3264 97.7291 39.7292V44.8333C97.7291 45.2361 97.4027 45.5625 97 45.5625Z" fill="url(#paint4_linear_341_62)"/>
<path d="M90.7453 43.3055L89.9082 41.285C89.754 40.913 89.9307 40.4864 90.3027 40.3323C90.6749 40.1781 91.1013 40.3549 91.2555 40.7269L92.0926 42.7474C92.2467 43.1195 92.07 43.5461 91.6979 43.7001C91.3252 43.8545 90.8991 43.6769 90.7453 43.3055Z" fill="url(#paint5_linear_341_62)"/>
<path d="M83.5262 51.6483C83.4332 51.6483 83.3386 51.6304 83.2474 51.5926L81.2268 50.7555C80.8547 50.6013 80.6781 50.1748 80.8322 49.8028C80.9864 49.4307 81.4131 49.2543 81.7849 49.4082L83.8055 50.2453C84.1776 50.3994 84.3542 50.826 84.2001 51.198C84.0838 51.4788 83.8123 51.6483 83.5262 51.6483Z" fill="url(#paint6_linear_341_62)"/>
<path d="M80.8322 63.1972C80.6781 62.8251 80.8548 62.3986 81.2269 62.2445L83.2474 61.4075C83.6193 61.2533 84.046 61.43 84.2001 61.8021C84.3543 62.1742 84.1776 62.6006 83.8055 62.7547L81.785 63.5917C81.4122 63.7462 80.9861 63.5685 80.8322 63.1972Z" fill="url(#paint7_linear_341_62)"/>
<path d="M90.3027 72.6677C89.9307 72.5137 89.754 72.087 89.9082 71.7151L90.7453 69.6945C90.8995 69.3225 91.326 69.146 91.698 69.3C92.07 69.4541 92.2467 69.8807 92.0926 70.2527L91.2555 72.2732C91.1023 72.6429 90.6772 72.8227 90.3027 72.6677Z" fill="url(#paint8_linear_341_62)"/>
<path d="M102.744 72.2731L101.907 70.2526C101.753 69.8805 101.93 69.454 102.302 69.2999C102.674 69.1459 103.101 69.3224 103.255 69.6945L104.092 71.715C104.246 72.0871 104.069 72.5136 103.697 72.6677C103.324 72.8222 102.898 72.6445 102.744 72.2731Z" fill="url(#paint9_linear_341_62)"/>
<path d="M112.494 63.6474C112.401 63.6474 112.306 63.6295 112.215 63.5917L110.195 62.7547C109.822 62.6006 109.646 62.174 109.8 61.802C109.954 61.43 110.381 61.2534 110.753 61.4074L112.773 62.2445C113.145 62.3985 113.322 62.8251 113.168 63.1971C113.051 63.4779 112.78 63.6474 112.494 63.6474Z" fill="url(#paint10_linear_341_62)"/>
<path d="M110.474 51.6483C110.188 51.6483 109.916 51.4788 109.8 51.198C109.646 50.8259 109.823 50.3994 110.195 50.2453L112.215 49.4082C112.587 49.2542 113.014 49.4306 113.168 49.8027C113.322 50.1748 113.145 50.6013 112.773 50.7555L110.753 51.5926C110.661 51.6304 110.567 51.6483 110.474 51.6483Z" fill="url(#paint11_linear_341_62)"/>
<path d="M102.302 43.7001C101.93 43.546 101.753 43.1194 101.907 42.7474L102.744 40.7269C102.898 40.3548 103.325 40.1783 103.697 40.3323C104.069 40.4864 104.246 40.913 104.092 41.285L103.255 43.3055C103.101 43.677 102.675 43.8544 102.302 43.7001Z" fill="url(#paint12_linear_341_62)"/>
<path d="M88.2346 48.7658L84.6259 45.1572C84.3412 44.8724 84.3412 44.4107 84.6259 44.1259C84.9107 43.8411 85.3724 43.8412 85.6572 44.1259L89.2658 47.7345C89.5506 48.0193 89.5505 48.4811 89.2658 48.7659C88.981 49.0506 88.5193 49.0506 88.2346 48.7658Z" fill="url(#paint13_linear_341_62)"/>
<path d="M85.3333 57.2292H80.2292C79.8264 57.2292 79.5 56.9027 79.5 56.5C79.5 56.0973 79.8264 55.7708 80.2292 55.7708H85.3333C85.7361 55.7708 86.0625 56.0973 86.0625 56.5C86.0625 56.9027 85.7361 57.2292 85.3333 57.2292Z" fill="url(#paint14_linear_341_62)"/>
<path d="M84.626 68.874C84.3412 68.5893 84.3412 68.1276 84.626 67.8428L88.2346 64.2341C88.5194 63.9495 88.9811 63.9495 89.2658 64.2341C89.5505 64.5189 89.5506 64.9806 89.2658 65.2654L85.6572 68.874C85.3723 69.1588 84.9108 69.1588 84.626 68.874Z" fill="url(#paint15_linear_341_62)"/>
<path d="M97 74C96.5972 74 96.2708 73.6735 96.2708 73.2708V68.1667C96.2708 67.764 96.5973 67.4375 97 67.4375C97.4028 67.4375 97.7291 67.764 97.7291 68.1667V73.2708C97.7291 73.6735 97.4027 74 97 74Z" fill="url(#paint16_linear_341_62)"/>
<path d="M108.343 68.874L104.734 65.2654C104.449 64.9806 104.449 64.5189 104.734 64.2341C105.019 63.9494 105.481 63.9495 105.765 64.2341L109.374 67.8428C109.659 68.1275 109.659 68.5892 109.374 68.874C109.089 69.1588 108.628 69.1588 108.343 68.874Z" fill="url(#paint17_linear_341_62)"/>
<path d="M113.771 57.2292H108.667C108.264 57.2292 107.938 56.9027 107.938 56.5C107.938 56.0973 108.264 55.7708 108.667 55.7708H113.771C114.173 55.7708 114.5 56.0973 114.5 56.5C114.5 56.9027 114.173 57.2292 113.771 57.2292Z" fill="url(#paint18_linear_341_62)"/>
<path d="M105.25 48.9794C105.063 48.9794 104.876 48.9081 104.734 48.7657C104.449 48.481 104.449 48.0194 104.734 47.7346L108.343 44.126C108.628 43.8413 109.089 43.8412 109.374 44.126C109.659 44.4107 109.659 44.8724 109.374 45.1572L105.765 48.7658C105.623 48.9081 105.436 48.9794 105.25 48.9794Z" fill="url(#paint19_linear_341_62)"/>
</g>
<defs>
<filter id="filter0_d_341_62" x="0.5" y="0" width="193" height="193" filterUnits="userSpaceOnUse" color-interpolation-filters="sRGB">
<feFlood flood-opacity="0" result="BackgroundImageFix"/>
<feColorMatrix in="SourceAlpha" type="matrix" values="0 0 0 0 0 0 0 0 0 0 0 0 0 0 0 0 0 0 127 0" result="hardAlpha"/>
<feOffset dy="40"/>
<feGaussianBlur stdDeviation="32.5"/>
<feComposite in2="hardAlpha" operator="out"/>
<feColorMatrix type="matrix" values="0 0 0 0 0 0 0 0 0 0 0 0 0 0 0 0 0 0 0.18 0"/>
<feBlend mode="normal" in2="BackgroundImageFix" result="effect1_dropShadow_341_62"/>
<feBlend mode="normal" in="SourceGraphic" in2="effect1_dropShadow_341_62" result="shape"/>
</filter>
<linearGradient id="paint0_linear_341_62" x1="95.1771" y1="57.9583" x2="95.1771" y2="60.1458" gradientUnits="userSpaceOnUse">
<stop stop-color="#B6E0FF"/>
<stop offset="0.630208" stop-color="#E7F6A8"/>
<stop offset="1" stop-color="#75F7FF"/>
</linearGradient>
<linearGradient id="paint1_linear_341_62" x1="97" y1="39" x2="97" y2="74" gradientUnits="userSpaceOnUse">
<stop stop-color="#B6E0FF"/>
<stop offset="0.630208" stop-color="#E7F6A8"/>
<stop offset="1" stop-color="#75F7FF"/>
</linearGradient>
<linearGradient id="paint2_linear_341_62" x1="97" y1="39" x2="97" y2="74" gradientUnits="userSpaceOnUse">
<stop stop-color="#B6E0FF"/>
<stop offset="0.630208" stop-color="#E7F6A8"/>
<stop offset="1" stop-color="#75F7FF"/>
</linearGradient>
<linearGradient id="paint3_linear_341_62" x1="97" y1="39" x2="97" y2="74" gradientUnits="userSpaceOnUse">
<stop stop-color="#B6E0FF"/>
<stop offset="0.630208" stop-color="#E7F6A8"/>
<stop offset="1" stop-color="#75F7FF"/>
</linearGradient>
<linearGradient id="paint4_linear_341_62" x1="97" y1="39" x2="97" y2="74" gradientUnits="userSpaceOnUse">
<stop stop-color="#B6E0FF"/>
<stop offset="0.630208" stop-color="#E7F6A8"/>
<stop offset="1" stop-color="#75F7FF"/>
</linearGradient>
<linearGradient id="paint5_linear_341_62" x1="97" y1="39" x2="97" y2="74" gradientUnits="userSpaceOnUse">
<stop stop-color="#B6E0FF"/>
<stop offset="0.630208" stop-color="#E7F6A8"/>
<stop offset="1" stop-color="#75F7FF"/>
</linearGradient>
<linearGradient id="paint6_linear_341_62" x1="97" y1="39" x2="97" y2="74" gradientUnits="userSpaceOnUse">
<stop stop-color="#B6E0FF"/>
<stop offset="0.630208" stop-color="#E7F6A8"/>
<stop offset="1" stop-color="#75F7FF"/>
</linearGradient>
<linearGradient id="paint7_linear_341_62" x1="97" y1="39" x2="97" y2="74" gradientUnits="userSpaceOnUse">
<stop stop-color="#B6E0FF"/>
<stop offset="0.630208" stop-color="#E7F6A8"/>
<stop offset="1" stop-color="#75F7FF"/>
</linearGradient>
<linearGradient id="paint8_linear_341_62" x1="97" y1="39" x2="97" y2="74" gradientUnits="userSpaceOnUse">
<stop stop-color="#B6E0FF"/>
<stop offset="0.630208" stop-color="#E7F6A8"/>
<stop offset="1" stop-color="#75F7FF"/>
</linearGradient>
<linearGradient id="paint9_linear_341_62" x1="97" y1="39" x2="97" y2="74" gradientUnits="userSpaceOnUse">
<stop stop-color="#B6E0FF"/>
<stop offset="0.630208" stop-color="#E7F6A8"/>
<stop offset="1" stop-color="#75F7FF"/>
</linearGradient>
<linearGradient id="paint10_linear_341_62" x1="97" y1="39" x2="97" y2="74" gradientUnits="userSpaceOnUse">
<stop stop-color="#B6E0FF"/>
<stop offset="0.630208" stop-color="#E7F6A8"/>
<stop offset="1" stop-color="#75F7FF"/>
</linearGradient>
<linearGradient id="paint11_linear_341_62" x1="97" y1="39" x2="97" y2="74" gradientUnits="userSpaceOnUse">
<stop stop-color="#B6E0FF"/>
<stop offset="0.630208" stop-color="#E7F6A8"/>
<stop offset="1" stop-color="#75F7FF"/>
</linearGradient>
<linearGradient id="paint12_linear_341_62" x1="97" y1="39" x2="97" y2="74" gradientUnits="userSpaceOnUse">
<stop stop-color="#B6E0FF"/>
<stop offset="0.630208" stop-color="#E7F6A8"/>
<stop offset="1" stop-color="#75F7FF"/>
</linearGradient>
<linearGradient id="paint13_linear_341_62" x1="97" y1="39" x2="97" y2="74" gradientUnits="userSpaceOnUse">
<stop stop-color="#B6E0FF"/>
<stop offset="0.630208" stop-color="#E7F6A8"/>
<stop offset="1" stop-color="#75F7FF"/>
</linearGradient>
<linearGradient id="paint14_linear_341_62" x1="97" y1="39" x2="97" y2="74" gradientUnits="userSpaceOnUse">
<stop stop-color="#B6E0FF"/>
<stop offset="0.630208" stop-color="#E7F6A8"/>
<stop offset="1" stop-color="#75F7FF"/>
</linearGradient>
<linearGradient id="paint15_linear_341_62" x1="97" y1="39" x2="97" y2="74" gradientUnits="userSpaceOnUse">
<stop stop-color="#B6E0FF"/>
<stop offset="0.630208" stop-color="#E7F6A8"/>
<stop offset="1" stop-color="#75F7FF"/>
</linearGradient>
<linearGradient id="paint16_linear_341_62" x1="97" y1="39" x2="97" y2="74" gradientUnits="userSpaceOnUse">
<stop stop-color="#B6E0FF"/>
<stop offset="0.630208" stop-color="#E7F6A8"/>
<stop offset="1" stop-color="#75F7FF"/>
</linearGradient>
<linearGradient id="paint17_linear_341_62" x1="97" y1="39" x2="97" y2="74" gradientUnits="userSpaceOnUse">
<stop stop-color="#B6E0FF"/>
<stop offset="0.630208" stop-color="#E7F6A8"/>
<stop offset="1" stop-color="#75F7FF"/>
</linearGradient>
<linearGradient id="paint18_linear_341_62" x1="97" y1="39" x2="97" y2="74" gradientUnits="userSpaceOnUse">
<stop stop-color="#B6E0FF"/>
<stop offset="0.630208" stop-color="#E7F6A8"/>
<stop offset="1" stop-color="#75F7FF"/>
</linearGradient>
<linearGradient id="paint19_linear_341_62" x1="97" y1="39" x2="97" y2="74" gradientUnits="userSpaceOnUse">
<stop stop-color="#B6E0FF"/>
<stop offset="0.630208" stop-color="#E7F6A8"/>
<stop offset="1" stop-color="#75F7FF"/>
</linearGradient>
</defs>
</svg>
